<svg width="20" height="20" viewBox="0 0 20 20" fill="none" xmlns="http://www.w3.org/2000/svg">
<path d="M16.4449 5.66406C16.2815 5.66406 16.149 5.79651 16.149 5.95993V17.3373C16.149 18.4793 15.2199 19.4083 14.0779 19.4083H5.95172C4.80975 19.4083 3.8808 18.4793 3.8808 17.3373V5.95993C3.8808 5.79651 3.74835 5.66406 3.58493 5.66406C3.42151 5.66406 3.28906 5.79651 3.28906 5.95993V17.3373C3.28906 18.8055 4.48352 20 5.95172 20H14.0779C15.5463 20 16.7408 18.8055 16.7408 17.3373V5.95993C16.7408 5.79651 16.6083 5.66406 16.4449 5.66406Z" fill="white"/>
<path d="M16.4845 1.57791H12.9593L12.4702 0.59967C12.2853 0.229797 11.9135 0 11.4999 0H8.53043C8.11676 0 7.74506 0.229797 7.56012 0.59967L7.07108 1.57791H3.54568C2.94754 1.57791 2.46094 2.06451 2.46094 2.66266V3.76724C2.46094 4.36539 2.94754 4.85214 3.54568 4.85214H16.4847C17.0828 4.85214 17.5694 4.36539 17.5694 3.76724V2.66266C17.5694 2.06451 17.0827 1.57791 16.4845 1.57791ZM8.08929 0.864258C8.17337 0.696106 8.34244 0.591736 8.53043 0.591736H11.4999C11.6879 0.591736 11.857 0.696106 11.9411 0.864258L12.2978 1.57791H7.73254L8.08929 0.864258ZM16.9777 3.76724C16.9777 4.03915 16.7564 4.26041 16.4847 4.26041H3.54568C3.27377 4.26041 3.05267 4.03915 3.05267 3.76724V2.66266C3.05267 2.39075 3.27393 2.16965 3.54568 2.16965H12.7759H12.7768H12.7777H16.4847C16.7566 2.16965 16.9777 2.3909 16.9777 2.66266V3.76724Z" fill="white"/>
<path d="M14.7292 16.4694V9.09268C14.7292 8.49454 14.2426 8.00793 13.6445 8.00793C13.0462 8.00793 12.5596 8.49454 12.5596 9.09268V16.4694C12.5596 17.0675 13.0462 17.5541 13.6445 17.5541C14.2426 17.5543 14.7292 17.0675 14.7292 16.4694ZM13.1513 16.4694V9.09268C13.1513 8.82077 13.3726 8.59952 13.6445 8.59952C13.9164 8.59952 14.1375 8.82077 14.1375 9.09268V16.4694C14.1375 16.7413 13.9162 16.9624 13.6445 16.9624C13.3726 16.9626 13.1513 16.7413 13.1513 16.4694Z" fill="white"/>
<path d="M7.4714 16.4694V9.09268C7.4714 8.49454 6.98465 8.00793 6.3865 8.00793C5.78836 8.00793 5.30176 8.49454 5.30176 9.09268V16.4694C5.30176 17.0675 5.78836 17.5541 6.3865 17.5541C6.98465 17.5541 7.4714 17.0675 7.4714 16.4694ZM5.89334 16.4694V9.09268C5.89334 8.82077 6.11459 8.59952 6.3865 8.59952C6.65842 8.59952 6.87952 8.82077 6.87952 9.09268V16.4694C6.87952 16.7413 6.65842 16.9624 6.3865 16.9624C6.11459 16.9626 5.89334 16.7413 5.89334 16.4694Z" fill="white"/>
<path d="M11.1003 16.4694V9.09268C11.1003 8.49454 10.6135 8.00793 10.0154 8.00793C9.41727 8.00793 8.93066 8.49454 8.93066 9.09268V16.4694C8.93066 17.0675 9.41727 17.5541 10.0154 17.5541C10.6135 17.5541 11.1003 17.0675 11.1003 16.4694ZM9.5224 16.4694V9.09268C9.5224 8.82077 9.74365 8.59952 10.0154 8.59952C10.2873 8.59952 10.5086 8.82077 10.5086 9.09268V16.4694C10.5086 16.7413 10.2873 16.9624 10.0154 16.9624C9.7435 16.9626 9.5224 16.7413 9.5224 16.4694Z" fill="white"/>
</svg>
