<svg width="19" height="20" viewBox="0 0 19 20" fill="none" xmlns="http://www.w3.org/2000/svg">
<path d="M2.7832 20H16.2168C17.7515 20 19 18.6858 19 17.0703V2.92969C19 1.31424 17.7515 0 16.2168 0H2.7832C1.24853 0 0 1.31424 0 2.92969V17.0703C0 18.6858 1.24853 20 2.7832 20ZM1.11328 2.92969C1.11328 1.96045 1.86243 1.17188 2.7832 1.17188H16.2168C17.1376 1.17188 17.8867 1.96045 17.8867 2.92969V17.0703C17.8867 18.0396 17.1376 18.8281 16.2168 18.8281H2.7832C1.86243 18.8281 1.11328 18.0396 1.11328 17.0703V2.92969Z" fill="white"/>
<path d="M9.5 15.2734C12.2623 15.2734 14.5098 12.9077 14.5098 10C14.5098 7.09229 12.2623 4.72656 9.5 4.72656C6.73767 4.72656 4.49023 7.09229 4.49023 10C4.49023 12.9077 6.73767 15.2734 9.5 15.2734ZM9.5 5.89844C11.6486 5.89844 13.3965 7.73834 13.3965 10C13.3965 12.2617 11.6486 14.1016 9.5 14.1016C7.35143 14.1016 5.60352 12.2617 5.60352 10C5.60352 7.73834 7.35143 5.89844 9.5 5.89844Z" fill="white"/>
<path d="M15.0664 5.89844C15.9872 5.89844 16.7363 5.10986 16.7363 4.14062C16.7363 3.17139 15.9872 2.38281 15.0664 2.38281C14.1456 2.38281 13.3965 3.17139 13.3965 4.14062C13.3965 5.10986 14.1456 5.89844 15.0664 5.89844ZM15.0664 3.55469C15.3733 3.55469 15.623 3.8176 15.623 4.14062C15.623 4.46365 15.3733 4.72656 15.0664 4.72656C14.7595 4.72656 14.5098 4.46365 14.5098 4.14062C14.5098 3.8176 14.7595 3.55469 15.0664 3.55469Z" fill="white"/>
</svg>
