<svg width="31" height="31" viewBox="0 0 31 31" fill="#ffffff" xmlns="http://www.w3.org/2000/svg">
<path d="M30.7297 29.4191L23.1962 21.8856C25.2171 19.5623 26.4406 16.531 26.4406 13.218C26.4406 5.92506 20.5086 0 13.2226 0C5.92969 0 0.00463867 5.93193 0.00463867 13.218C0.00463867 20.504 5.93657 26.4359 13.2226 26.4359C16.5357 26.4359 19.5669 25.2124 21.8902 23.1916L29.4237 30.7251C29.6024 30.9038 29.843 31 30.0767 31C30.3104 31 30.551 30.9106 30.7297 30.7251C31.0871 30.3676 31.0871 29.7765 30.7297 29.4191ZM1.85364 13.218C1.85364 6.94922 6.95386 1.85588 13.2157 1.85588C19.4845 1.85588 24.5778 6.9561 24.5778 13.218C24.5778 19.4798 19.4845 24.5869 13.2157 24.5869C6.95386 24.5869 1.85364 19.4867 1.85364 13.218Z" fill="white"/>
</svg>
